<svg width="167" height="168" viewBox="0 0 167 168" fill="none" xmlns="http://www.w3.org/2000/svg">
<path opacity="0.2" d="M83.316 167.218C129.234 167.218 166.459 129.993 166.459 84.075C166.459 38.1566 129.234 0.932373 83.316 0.932373C37.3976 0.932373 0.17334 38.1566 0.17334 84.075C0.17334 129.993 37.3976 167.218 83.316 167.218Z" fill="#32A4BE"/>
<mask id="mask0_103_2607" style="mask-type:luminance" maskUnits="userSpaceOnUse" x="0" y="0" width="167" height="168">
<path d="M83.316 167.218C129.234 167.218 166.459 129.993 166.459 84.075C166.459 38.1566 129.234 0.932373 83.316 0.932373C37.3976 0.932373 0.17334 38.1566 0.17334 84.075C0.17334 129.993 37.3976 167.218 83.316 167.218Z" fill="white"/>
</mask>
<g mask="url(#mask0_103_2607)">
<path fill-rule="evenodd" clip-rule="evenodd" d="M60.3052 57.337L128.024 122.271L127.823 91.7726H127.805C128.857 78.2041 126.08 66.859 116.73 57.7413C101.205 42.6317 75.8375 42.2393 60.3052 57.337L60.3052 57.337Z" fill="#32A4BE"/>
<path fill-rule="evenodd" clip-rule="evenodd" d="M112.851 111.091L45.3491 46.1008V76.4482L45.3674 76.4482C44.9203 90.0632 46.762 101.418 56.1973 110.501C71.8643 125.554 97.1766 126.132 112.851 111.091L112.851 111.091Z" fill="#32A4BE"/>
</g>
</svg>
